<?xml version="1.0" encoding="utf-8"?>
<!-- Generator: Adobe Illustrator 18.1.1, SVG Export Plug-In . SVG Version: 6.00 Build 0)  -->
<svg version="1.1" id="Laag_1" xmlns="http://www.w3.org/2000/svg" xmlns:xlink="http://www.w3.org/1999/xlink" x="0px" y="0px"
	 viewBox="0 0 300 300" enable-background="new 0 0 300 300" xml:space="preserve">
<g id="Google_x2B_" display="none">
	<path display="inline" fill="#010202" d="M103.7,133.1V165c0,0,30.6,0,43.2,0c-6.9,20.6-17.5,31.9-43.2,31.9
		c-26.3,0-46.9-21.3-46.9-47.5s20.6-47.5,46.9-47.5c13.8,0,23.1,5,31.3,11.9c6.9-6.9,6.3-7.5,22.5-23.1
		c-14.4-13.1-33.1-20.6-53.8-20.6c-44.4,0-80.1,35.7-80.1,80.1s35.7,80.1,80.1,80.1c66.3,0,82.6-57.5,76.9-96.3h-76.9V133.1z"/>
	<polygon display="inline" fill="#010202" points="248.2,135 248.2,106.8 228.8,106.8 228.8,135 200,135 200,154.4 228.8,154.4 
		228.8,183.1 248.2,183.1 248.2,154.4 276.3,154.4 276.3,135 	"/>
</g>
<path id="Facebook" fill="#010202" d="M258.7,246.3c0,6.5-5.3,11.8-11.8,11.8h-55.5v-83.9h28.4l4.1-32.5h-32.5v-20.7
	c0-9.5,2.4-16,16-16h17.1V75.6c-3-0.6-13-1.2-25.4-1.2c-24.8,0-41.9,15.4-41.9,43.1v24.2h-28.4v32.5h28.4v83.9h-104
	c-6.5,0-11.8-5.3-11.8-11.8V53.7c0-6.5,5.3-11.8,11.8-11.8h193.2c6.5,0,11.8,5.3,11.8,11.8v192.6H258.7z"/>
</svg>
