<?xml version="1.0" encoding="utf-8"?>
<!-- Generator: Adobe Illustrator 18.1.1, SVG Export Plug-In . SVG Version: 6.00 Build 0)  -->
<svg version="1.1" id="Laag_1" xmlns="http://www.w3.org/2000/svg" xmlns:xlink="http://www.w3.org/1999/xlink" x="0px" y="0px"
	 viewBox="0 0 300 300" enable-background="new 0 0 300 300" xml:space="preserve">
<g id="Google_x2B_" display="none">
	<path display="inline" fill="#010202" d="M103.7,133.1V165c0,0,30.6,0,43.2,0c-6.9,20.6-17.5,31.9-43.2,31.9
		c-26.3,0-46.9-21.3-46.9-47.5s20.6-47.5,46.9-47.5c13.8,0,23.1,5,31.3,11.9c6.9-6.9,6.3-7.5,22.5-23.1
		c-14.4-13.1-33.1-20.6-53.8-20.6c-44.4,0-80.1,35.7-80.1,80.1s35.7,80.1,80.1,80.1c66.3,0,82.6-57.5,76.9-96.3h-76.9V133.1z"/>
	<polygon display="inline" fill="#010202" points="248.2,135 248.2,106.8 228.8,106.8 228.8,135 200,135 200,154.4 228.8,154.4 
		228.8,183.1 248.2,183.1 248.2,154.4 276.3,154.4 276.3,135 	"/>
</g>
<path id="Facebook" display="none" fill="#010202" d="M258.7,246.3c0,6.5-5.3,11.8-11.8,11.8h-55.5v-83.9h28.4l4.1-32.5h-32.5v-20.7
	c0-9.5,2.4-16,16-16h17.1V75.6c-3-0.6-13-1.2-25.4-1.2c-24.8,0-41.9,15.4-41.9,43.1v24.2h-28.4v32.5h28.4v83.9h-104
	c-6.5,0-11.8-5.3-11.8-11.8V53.7c0-6.5,5.3-11.8,11.8-11.8h193.2c6.5,0,11.8,5.3,11.8,11.8v192.6H258.7z"/>
<g id="LinkedIn" display="none">
	<rect x="47.6" y="114.6" display="inline" fill="#010202" width="42.1" height="133.5"/>
	<path display="inline" fill="#010202" d="M204.4,113.4c-24,0-39.2,12.9-42.1,22.2v-21.1h-47.4c0.6,11.1,0,133.5,0,133.5h47.4v-72
		c0-4.1,0-8.2,1.2-11.1c3.5-8.2,10-16.4,22.8-16.4c16.4,0,24,12.3,24,30.4v69.1h48v-74.3C257.7,132.7,234.3,113.4,204.4,113.4z"/>
	<path display="inline" fill="#010202" d="M67.5,51.9c-15.8,0-25.8,10-25.8,23.4c0,12.9,10,22.8,25.2,22.8h0.6
		c15.8,0,25.8-10,25.8-23.4C92.6,61.9,83.3,51.9,67.5,51.9z"/>
</g>
<path id="Twitter" display="none" fill="#010202" d="M268.9,50c-10.2,6.1-21.1,10.9-33.4,12.9c-9.5-10.2-23.2-17-38.2-17
	c-28.6,0-52.5,23.9-52.5,53.8c0,4.1,0.7,8.2,1.4,12.3c-43.6-2-81.8-23.9-107.7-55.9c-4.8,8.2-6.8,17-6.8,27.3
	c0,18.4,9.5,34.8,23.2,45c-8.9,0-16.4-2.7-23.9-6.8v0.7c0,25.9,17.7,47.7,42.3,52.5c-4.1,1.4-8.9,2-13.6,2c-3.4,0-6.8,0-9.5-0.7
	c6.8,21.1,25.9,36.8,49.1,37.5c-17.7,14.3-40.2,23.2-64.7,23.2c-4.1,0-8.2,0-12.3-0.7c23.2,15,50.4,23.9,80.4,23.9
	c96.1,0,149.2-81.8,149.2-152.7c0-2,0-4.8,0-6.8c10.2-7.5,19.1-17,25.9-27.9c-9.5,4.1-19.8,7.5-30,8.2C256.7,73.2,264.8,63,268.9,50
	z"/>
<path id="Instagram" fill="#010202" d="M233.5,45.9H66.5c-14.4,0-26.4,11.4-26.4,25.8v167.7c0,14.4,12,25.8,26.4,25.8h167.1
	c14.4,0,26.4-11.4,26.4-25.8V71.7C259.3,57.9,247.9,45.9,233.5,45.9z M197.6,80.7c0-3.6,3-6.6,6.6-6.6h20.4c3.6,0,6.6,3,6.6,6.6V101
	c0,3.6-3,6.6-6.6,6.6h-20.4c-3.6,0-6.6-3-6.6-6.6V80.7z M149.7,114.2c23.4,0,42.5,18.6,42.5,41.9S173.1,198,149.7,198
	c-23.4,0-41.9-18.6-41.9-41.9S126.3,114.2,149.7,114.2z M238.9,238.2c0,3.6-3,6.6-6.6,6.6H67.7c-3.6,0-6.6-3-6.6-6.6v-103h27.5
	c-3.6,5.4-4.8,15-4.8,21c0,36.5,29.9,66.5,67.1,66.5s67.1-29.9,67.1-66.5c0-6-0.6-15.6-5.4-21h27.5v103H238.9z"/>
</svg>
