<?xml version="1.0" encoding="utf-8"?>
<!-- Generator: Adobe Illustrator 21.1.0, SVG Export Plug-In . SVG Version: 6.00 Build 0)  -->
<svg version="1.1" id="Laag_1" xmlns="http://www.w3.org/2000/svg" xmlns:xlink="http://www.w3.org/1999/xlink" x="0px" y="0px"
	 viewBox="0 0 300 300" style="enable-background:new 0 0 300 300;" xml:space="preserve">
<style type="text/css">
	.st0{fill:none;stroke:#FFFFFF;stroke-width:2.5423;stroke-miterlimit:10;}
	.st1{fill:#FFFFFF;}
	.st2{opacity:0.6;}
</style>
<rect x="47.9" y="48.6" transform="matrix(0.7071 0.7071 -0.7071 0.7071 148.8077 -61.2547)" class="st0" width="200.8" height="200.8"/>
<polygon class="st0" points="148.3,291 24.1,149 148.3,7 272.6,149 "/>
<polygon class="st0" points="148.3,291 51.3,149 148.3,7 247.1,149 "/>
<polygon class="st1" points="148.3,291 63.3,149 148.3,7 233.4,149 "/>
<g class="st2">
	<path d="M144,136.2h0.2l7.6-19.5h9.6l-13,29.3v16.2h-8.9v-16.7l-12.8-28.7h9.7L144,136.2z"/>
	<path d="M148.1,190.2v-45.5h13.7c4.7,0,8.5,1.8,11.6,5.3s4.6,8.1,4.6,13.6v7.6c0,5.6-1.5,10.1-4.6,13.6c-3,3.5-6.9,5.3-11.6,5.3
		H148.1z M157,151.9v31.3h4.3c2.5,0,4.4-1.1,5.7-3.2c1.3-2.2,2-5,2-8.6v-7.7c0-3.5-0.7-6.4-2-8.5c-1.3-2.1-3.3-3.2-5.7-3.2H157z"/>
</g>
</svg>
